<?xml version="1.0" standalone="no"?>
<!DOCTYPE svg PUBLIC "-//W3C//DTD SVG 20010904//EN"
 "http://www.w3.org/TR/2001/REC-SVG-20010904/DTD/svg10.dtd">
<svg version="1.0" xmlns="http://www.w3.org/2000/svg"
 width="1080.000000pt" height="1080.000000pt" viewBox="0 0 1080.000000 1080.000000"
 preserveAspectRatio="xMidYMid meet">

<g transform="translate(0.000000,1080.000000) scale(0.100000,-0.100000)"
fill="#000000" stroke="none">
<path d="M1630 5395 l0 -1035 3765 0 3765 0 0 1035 0 1035 -3765 0 -3765 0 0
-1035z m7470 5 l0 -980 -3705 0 -3705 0 0 980 0 980 3705 0 3705 0 0 -980z"/>
<path d="M1830 5400 l0 -840 1780 0 1780 0 0 840 0 840 -1780 0 -1780 0 0
-840z m1205 78 c49 -125 92 -224 96 -220 3 4 45 107 93 230 l87 222 36 0 c32
0 35 -2 29 -22 -3 -13 -52 -140 -110 -283 l-104 -260 -34 -3 -35 -3 -107 273
c-60 150 -111 279 -114 286 -3 10 5 13 34 10 l39 -3 90 -227z m575 -53 l0
-285 -35 0 -35 0 0 278 c0 153 3 282 7 285 3 4 19 7 35 7 l28 0 0 -285z m450
65 l155 -221 3 221 2 220 35 0 35 0 0 -285 0 -285 -33 0 c-32 0 -40 8 -188
219 l-154 218 -3 -218 -2 -219 -35 0 -35 0 0 285 0 285 33 0 c31 0 39 -10 187
-220z"/>
<path d="M6735 5697 c-84 -28 -118 -66 -131 -145 -5 -31 -1 -52 16 -86 26 -54
61 -78 156 -104 94 -26 114 -38 114 -65 0 -33 -19 -47 -61 -47 -39 0 -69 20
-69 46 0 11 -17 14 -80 14 -74 0 -80 -2 -80 -20 0 -63 69 -141 142 -161 60
-16 177 -7 224 18 93 48 120 178 52 251 -30 32 -80 57 -151 75 -70 18 -107 41
-107 65 0 28 21 42 60 42 36 0 70 -23 70 -48 0 -8 25 -12 79 -12 l79 0 -8 36
c-12 53 -50 102 -96 124 -53 26 -156 34 -209 17z"/>
<path d="M7147 5693 c-4 -3 -7 -132 -7 -285 l0 -278 85 0 85 0 0 285 0 285
-78 0 c-43 0 -82 -3 -85 -7z"/>
<path d="M7430 5415 l0 -285 80 0 79 0 3 142 3 142 105 -142 105 -141 68 -1
67 0 0 285 0 285 -80 0 -79 0 -3 -142 -3 -143 -108 143 -108 142 -64 0 -65 0
0 -285z"/>
</g>
</svg>
